Coordinates
version=1
nRows=13
nColumns=38
inDegrees=no

Units are S.I. units (second, meters, Newtons, ...)
If the header above contains a line with 'inDegrees', this indicates whether rotational values are in degrees (yes) or radians (no).

endheader
time	pelvis_tilt	pelvis_list	pelvis_rotation	pelvis_tx	pelvis_ty	pelvis_tz	hip_flexion_r	hip_adduction_r	hip_rotation_r	knee_angle_r	ankle_angle_r	subtalar_angle_r	mtp_angle_r	hip_flexion_l	hip_adduction_l	hip_rotation_l	knee_angle_l	ankle_angle_l	subtalar_angle_l	mtp_angle_l	lumbar_extension	lumbar_bending	lumbar_rotation	arm_flex_r	arm_add_r	arm_rot_r	elbow_flex_r	pro_sup_r	wrist_flex_r	wrist_dev_r	arm_flex_l	arm_add_l	arm_rot_l	elbow_flex_l	pro_sup_l	wrist_flex_l	wrist_dev_l
0	1.7855	1.52862	3.02443	0.703732	1.94346	1.01991	-0.272941	-0.108819	-0.233354	0.50598	-0.32662	0	0	0.361482	0.00611773	-0.258536	0.325551	-0.253803	0	0	-0.236726	-0.102261	-0.0155819	0.000299882	-0.225361	0.106588	0.831146	1.46599	0	0	-0.0519309	-0.356422	0.446054	0.641946	1.15974	0	0
0.01	2.41928	1.49217	2.33246	0.699246	1.92474	1.01742	-0.188046	-0.138867	-0.143455	0.566225	-0.374116	0	0	0.393721	-0.00809219	-0.338422	0.334976	-0.237534	0	0	-0.144225	-0.13352	0.0443433	-0.0210441	-0.185968	0.060885	0.772424	1.56772	0	0	-0.0570184	-0.36335	0.504648	0.607504	1.10383	0	0
0.02	1.97723	1.52654	2.84647	0.708759	1.91669	1.02163	-0.200102	-0.128451	-0.370238	0.664836	-0.441675	0	0	0.355501	0.0177604	-0.207686	0.343908	-0.218732	0	0	-0.215566	-0.101906	-0.0302222	-0.0161351	-0.202427	0.0815741	0.79656	1.56253	0	0	-0.0400543	-0.366084	0.498724	0.631695	1.09293	0	0
0.03	-2.68405	1.48107	1.22785	0.710676	1.90571	1.01171	-0.11575	-0.0412809	-0.157956	0.658035	-0.485982	0	0	0.451477	-0.0739169	-0.287539	0.408466	-0.185326	0	0	-0.127012	-0.0153028	-0.0212517	-0.050931	-0.232212	0.0994985	0.823832	1.5708	0	0	-0.0520288	-0.345012	0.491922	0.62879	1.08954	0	0
0.04	2.31071	1.50025	2.44647	0.706136	1.88472	1.02152	-0.104412	-0.166056	-0.295268	0.767373	-0.538834	0	0	0.355932	0.00382452	-0.292678	0.359536	-0.191076	0	0	-0.155315	-0.131139	0.0277185	-0.032967	-0.199336	0.123332	0.751121	1.5708	0	0	-0.0534303	-0.362574	0.49109	0.618281	1.08054	0	0
0.05	2.04409	1.52024	2.74741	0.712878	1.87579	1.02497	-0.11225	-0.164291	-0.332932	0.797958	-0.614959	0	0	0.324474	0.020584	-0.207944	0.356232	-0.184287	0	0	-0.202086	-0.110259	-0.0154169	-0.0229629	-0.217021	0.154915	0.76139	1.5708	0	0	-0.0392925	-0.360501	0.486041	0.633066	1.06833	0	0
0.06	2.28427	1.50203	2.45556	0.709068	1.8587	1.02411	-0.0496883	-0.179845	-0.269305	0.847089	-0.660947	0	0	0.324315	0.00787749	-0.280833	0.356334	-0.167059	0	0	-0.157204	-0.129933	0.0272682	-0.0275994	-0.214912	0.192173	0.728535	1.5708	0	0	-0.0554025	-0.361037	0.476481	0.630902	1.06668	0	0
0.07	2.25637	1.50487	2.46726	0.709734	1.84595	1.02571	-0.021354	-0.18404	-0.24416	0.887326	-0.676317	0	0	0.303481	0.00626589	-0.288732	0.351383	-0.15438	0	0	-0.159001	-0.129299	0.0343296	-0.0227033	-0.221857	0.226156	0.71503	1.5708	0	0	-0.0563852	-0.358738	0.464864	0.637536	1.06706	0	0
0.08	2.77421	1.51699	1.93097	0.710855	1.83196	1.02287	0.0197041	-0.154147	-0.217051	0.933782	-0.653293	0	0	0.30727	-0.0312826	-0.311611	0.382875	-0.103423	0	0	-0.138749	-0.0898683	0.0461483	-0.0348306	-0.253931	0.282841	0.732035	1.5708	0	0	-0.0831603	-0.334951	0.389486	0.65451	1.1234	0	0
0.09	2.76298	1.52386	1.93138	0.711773	1.81924	1.02514	0.0409814	-0.155617	-0.202792	0.970315	-0.62522	0	0	0.281177	-0.0328881	-0.322425	0.374617	-0.0962148	0	0	-0.145103	-0.0869975	0.0450201	-0.028815	-0.25514	0.304112	0.717436	1.5708	0	0	-0.084588	-0.335058	0.38355	0.663772	1.11985	0	0
0.1	2.74628	1.53093	1.94018	0.712782	1.8065	1.02761	0.0606834	-0.156606	-0.193593	1.00431	-0.578766	0	0	0.254555	-0.0344484	-0.331946	0.365213	-0.0910967	0	0	-0.15145	-0.0839949	0.0405897	-0.0210101	-0.258608	0.334388	0.701676	1.5708	0	0	-0.0875642	-0.333751	0.370128	0.673428	1.12515	0	0
0.11	2.7272	1.53752	1.95416	0.713969	1.79384	1.03017	0.079835	-0.157645	-0.188765	1.03473	-0.529622	0	0	0.229322	-0.0355983	-0.33971	0.356022	-0.0890604	0	0	-0.157172	-0.0806051	0.0345088	-0.0148109	-0.26112	0.359737	0.686758	1.5708	0	0	-0.0904286	-0.331329	0.353538	0.682743	1.13534	0	0
0.12	2.71486	1.54406	1.96337	0.715277	1.78124	1.03272	0.0980714	-0.158355	-0.187227	1.06038	-0.485301	0	0	0.205466	-0.0361018	-0.342737	0.348047	-0.0878437	0	0	-0.162488	-0.0762973	0.0277456	-0.0113457	-0.262654	0.377163	0.674278	1.5708	0	0	-0.0924376	-0.329055	0.338829	0.692238	1.14578	0	0
